<svg width="98" height="107" fill="none" xmlns="http://www.w3.org/2000/svg"><path d="M58.382 12.348c-3.988 6.491-3.845 14.287-.386 20.437 1.806 3.212 1.963 7.09.12 10.283l-.2.341a10.104 10.104 0 01-8.746 5.046h-.395c-3.688 0-6.971-2.076-8.853-5.244-3.602-6.068-10.287-10.09-17.909-9.884-10.485.28-19.227 8.903-19.631 19.374-.446 11.51 8.762 20.98 20.185 20.98 7.42 0 13.89-4.002 17.395-9.96 1.855-3.152 5.151-5.175 8.811-5.175h.396a10.1 10.1 0 018.746 5.045l.197.341c1.845 3.192 1.687 7.069-.12 10.283-3.457 6.15-3.6 13.946.386 20.438 5.486 8.932 17.332 12.184 26.61 7.299 10.2-5.37 13.805-18.073 8.095-27.956-3.71-6.42-10.414-10.016-17.331-10.07-3.66-.029-7.062-1.869-8.892-5.036l-.197-.345a10.081 10.081 0 010-10.09l.2-.343c1.829-3.167 5.23-5.007 8.89-5.036 6.917-.054 13.622-3.651 17.332-10.07 5.712-9.883 2.106-22.586-8.095-27.956-9.277-4.887-21.122-1.635-26.608 7.298z" stroke="#3DB2FF" stroke-width="4" stroke-miterlimit="10" stroke-linecap="round" stroke-linejoin="round"/></svg>