<svg width="61" height="64" fill="none" xmlns="http://www.w3.org/2000/svg"><path d="M35.941 7.66c-2.39 3.84-2.304 8.45-.23 12.088 1.082 1.9 1.176 4.194.07 6.082l-.118.202a6.072 6.072 0 01-5.243 2.984h-.237c-2.21 0-4.178-1.227-5.306-3.101a12.113 12.113 0 00-10.735-5.846c-6.284.166-11.524 5.266-11.766 11.459-.268 6.808 5.251 12.409 12.098 12.409a12.11 12.11 0 0010.427-5.892c1.112-1.864 3.087-3.06 5.281-3.06h.237a6.07 6.07 0 015.243 2.984l.118.202c1.106 1.888 1.01 4.18-.072 6.081-2.072 3.638-2.158 8.248.231 12.088 3.288 5.283 10.389 7.207 15.95 4.317 6.113-3.176 8.274-10.69 4.852-16.534-2.224-3.797-6.242-5.925-10.388-5.956-2.194-.017-4.233-1.105-5.33-2.979l-.118-.204a5.894 5.894 0 010-5.968l.12-.203c1.096-1.873 3.135-2.961 5.329-2.978 4.146-.032 8.164-2.16 10.388-5.956 3.424-5.845 1.262-13.358-4.852-16.535-5.56-2.89-12.66-.966-15.949 4.317z" stroke="#fff" stroke-width="4" stroke-miterlimit="10" stroke-linecap="round" stroke-linejoin="round"/></svg>