<svg width="61" height="64" fill="none" xmlns="http://www.w3.org/2000/svg"><path d="M35.94 7.66c-2.39 3.84-2.304 8.45-.23 12.088 1.082 1.9 1.176 4.194.072 6.082l-.12.202a6.072 6.072 0 01-5.242 2.984h-.237c-2.21 0-4.178-1.227-5.306-3.101a12.114 12.114 0 00-10.735-5.846c-6.285.166-11.524 5.266-11.766 11.459-.268 6.808 5.251 12.409 12.098 12.409a12.11 12.11 0 0010.427-5.892c1.112-1.864 3.087-3.06 5.28-3.06h.238a6.07 6.07 0 015.242 2.984l.118.202c1.106 1.888 1.011 4.18-.071 6.081-2.073 3.638-2.158 8.248.23 12.088 3.29 5.283 10.39 7.207 15.95 4.317 6.114-3.176 8.275-10.69 4.853-16.534-2.224-3.797-6.243-5.925-10.389-5.956-2.193-.017-4.232-1.105-5.329-2.979l-.118-.204a5.894 5.894 0 010-5.968l.12-.203c1.096-1.873 3.135-2.961 5.328-2.978 4.146-.032 8.165-2.16 10.389-5.956 3.423-5.845 1.262-13.358-4.852-16.535-5.56-2.89-12.66-.966-15.95 4.317z" stroke="#232323" stroke-width="4" stroke-miterlimit="10" stroke-linecap="round" stroke-linejoin="round"/></svg>